<?xml version="1.0" standalone="no"?>
<!DOCTYPE svg PUBLIC "-//W3C//DTD SVG 20010904//EN"
 "http://www.w3.org/TR/2001/REC-SVG-20010904/DTD/svg10.dtd">
<svg version="1.0" xmlns="http://www.w3.org/2000/svg"
 width="1086.000000pt" height="1086.000000pt" viewBox="0 0 1086.000000 1086.000000"
 preserveAspectRatio="xMidYMid meet">
<metadata>
Created by potrace 1.11, written by Peter Selinger 2001-2013
</metadata>
<g transform="translate(0.000000,1086.000000) scale(0.100000,-0.100000)"
fill="#000000" stroke="none">
<path d="M2745 9229 c-121 -95 -225 -178 -232 -184 -6 -5 -24 -20 -40 -32 -15
-11 -78 -61 -140 -110 -61 -48 -144 -113 -183 -143 -40 -30 -78 -61 -86 -68
-36 -34 -306 -242 -314 -242 -6 0 -10 -7 -10 -15 0 -8 -7 -15 -15 -15 -8 0
-15 -4 -15 -10 0 -5 -5 -10 -10 -10 -6 0 -18 -8 -28 -17 -22 -21 -29 -27 -147
-118 -103 -80 -115 -90 -158 -127 -18 -15 -35 -28 -38 -28 -3 0 -17 -10 -31
-22 -13 -13 -39 -34 -58 -48 -18 -14 -42 -33 -54 -42 -34 -28 -32 -26 -236
-188 -107 -84 -196 -157 -198 -162 -2 -4 -10 -8 -17 -8 -7 0 -15 -3 -17 -7 -2
-5 -25 -26 -53 -48 -27 -22 -55 -44 -61 -50 -7 -5 -24 -19 -40 -30 -28 -20
-85 -65 -94 -75 -3 -3 -21 -17 -42 -32 -20 -15 -42 -33 -50 -40 -7 -7 -31 -26
-53 -43 -22 -16 -46 -35 -52 -41 -7 -7 -17 -14 -23 -16 -5 -1 -12 -17 -16 -33
-11 -55 20 -77 124 -87 9 -1 11 -15 7 -51 -3 -28 -8 -53 -10 -57 -7 -11 -19
-154 -19 -225 0 -69 9 -165 19 -216 7 -38 59 -207 80 -260 17 -44 17 -48 2
-64 -18 -18 -20 -28 -11 -62 7 -25 40 -40 109 -48 57 -7 109 -14 145 -21 14
-2 49 -7 79 -10 29 -3 74 -9 100 -14 25 -4 49 -6 53 -4 16 10 7 -12 -16 -38
-23 -25 -28 -26 -154 -31 -72 -3 -135 -8 -141 -11 -11 -7 -26 -58 -35 -117 -3
-20 -8 -42 -10 -50 -3 -8 -8 -31 -11 -51 -13 -94 -17 -115 -25 -148 -5 -19
-12 -53 -16 -75 -3 -22 -18 -54 -32 -71 -15 -17 -67 -84 -117 -149 -49 -65
-95 -124 -102 -131 -7 -7 -13 -17 -13 -23 0 -6 -4 -11 -10 -11 -5 0 -10 -4
-10 -10 0 -5 -8 -18 -17 -28 -21 -23 -26 -28 -125 -159 -43 -56 -78 -110 -78
-120 0 -23 43 -67 54 -56 10 10 26 -18 18 -32 -7 -11 -8 -17 -18 -84 -12 -89
-18 -271 -11 -326 3 -16 8 -57 11 -90 11 -96 17 -139 22 -147 3 -5 0 -9 -5 -9
-6 -1 -15 -3 -21 -4 -5 -1 -14 -3 -19 -4 -15 -2 -19 -39 -6 -57 13 -19 14 -19
107 -28 65 -7 136 -14 198 -20 19 -3 62 -7 95 -11 33 -3 76 -8 95 -11 37 -5
103 -12 184 -19 26 -2 50 -6 52 -8 2 -2 9 -28 14 -58 6 -30 12 -65 15 -79 3
-14 9 -50 15 -80 6 -30 12 -64 14 -75 7 -35 95 -509 101 -540 11 -65 25 -141
31 -165 3 -14 7 -34 9 -45 9 -54 17 -100 21 -119 2 -11 8 -46 14 -76 11 -60
17 -92 25 -130 2 -14 7 -41 10 -60 3 -19 12 -66 20 -105 8 -38 17 -86 20 -105
5 -29 27 -153 41 -225 2 -11 7 -33 10 -50 4 -16 8 -39 10 -50 11 -70 15 -93
20 -115 3 -14 8 -36 10 -50 2 -14 9 -45 14 -70 5 -25 12 -68 15 -95 9 -70 26
-100 53 -99 20 1 35 -22 37 -58 1 -18 15 -18 15 0 0 11 3 23 8 25 6 4 87 14
192 23 19 1 62 5 95 8 33 3 87 8 120 10 33 3 89 9 125 12 36 4 81 8 100 10 19
1 71 6 115 10 44 4 101 8 127 8 27 1 48 3 48 6 0 3 12 5 28 6 15 0 63 4 107 8
44 4 94 9 110 11 17 1 66 5 110 9 44 4 100 9 125 12 25 2 68 7 95 9 45 3 84 7
210 20 22 2 78 7 125 11 47 3 101 8 120 10 34 3 66 7 210 19 36 4 84 8 107 11
24 3 69 7 100 9 127 10 189 15 218 20 17 3 66 7 109 11 44 3 95 7 115 9 20 2
70 7 111 10 41 3 89 8 105 10 46 6 195 18 237 19 21 1 38 3 38 6 0 3 17 5 38
6 20 0 69 3 107 7 39 4 98 10 132 13 82 6 145 12 218 18 33 3 89 8 125 11 36
3 88 8 115 11 59 5 148 13 225 19 30 2 80 7 110 9 30 3 96 8 145 11 50 4 104
9 120 11 17 2 66 7 110 10 44 3 96 7 115 9 118 11 212 18 262 19 32 1 58 4 58
7 0 4 15 6 33 6 32 0 165 10 243 19 22 2 69 7 105 9 35 3 87 7 115 9 143 12
215 18 269 22 33 3 78 7 100 9 22 2 74 6 115 9 137 12 184 16 260 23 41 4 92
7 112 7 21 1 38 3 38 6 0 3 21 5 48 6 26 0 81 4 122 8 41 3 102 9 135 11 33 3
85 7 115 10 30 2 87 7 125 10 39 4 86 8 105 10 19 2 76 6 125 10 50 4 106 8
125 10 19 2 71 7 115 10 44 3 100 7 125 9 79 8 250 23 340 30 179 14 240 20
368 31 31 3 86 8 122 10 156 12 197 16 232 20 21 3 73 7 115 10 43 3 94 7 113
9 40 5 177 16 265 22 96 6 122 28 91 77 -7 12 -12 33 -11 47 3 23 10 108 21
240 16 200 22 742 10 915 -9 127 -9 165 -2 172 6 7 17 8 87 12 16 1 30 9 36
23 11 24 6 34 -315 658 -58 113 -129 251 -158 308 l-52 102 40 83 c23 45 45
84 49 85 5 2 9 9 9 15 0 7 18 48 41 92 90 178 228 446 281 548 31 59 54 107
51 107 -3 0 -1 6 5 13 6 6 33 56 61 109 l51 97 -5 188 c-11 381 -16 569 -18
593 -2 14 1 34 4 46 5 14 0 29 -14 47 -18 22 -31 27 -77 28 -30 1 -61 6 -67
12 -9 6 -13 6 -13 0 0 -6 -12 -9 -27 -7 -43 6 -151 15 -219 18 -34 2 -66 6
-72 10 -6 3 -13 2 -17 -4 -4 -6 -11 -8 -17 -4 -5 3 -40 8 -76 10 -37 3 -92 6
-122 9 -157 11 -231 16 -290 20 -36 2 -65 4 -65 5 0 1 -29 3 -65 5 -36 2 -69
4 -73 4 -5 1 -2 7 5 14 7 8 31 35 53 61 22 27 49 58 60 70 11 12 51 59 89 104
38 45 73 82 78 82 4 0 8 6 8 14 0 8 3 16 8 18 4 2 36 37 71 78 35 41 69 78 75
82 10 7 11 76 2 233 -3 50 -8 131 -10 180 -3 50 -8 131 -11 180 -3 50 -7 117
-9 151 -2 33 -7 67 -11 74 -5 8 -4 11 2 7 6 -4 7 12 3 41 -6 48 -5 97 3 142
10 55 -25 74 -153 85 -41 3 -86 8 -100 10 -14 3 -54 7 -90 10 -36 3 -82 8
-102 11 -21 2 -55 6 -75 8 -21 3 -67 8 -103 11 -36 3 -81 8 -100 10 -19 2 -78
9 -130 14 -143 16 -186 21 -232 26 -24 2 -68 7 -98 10 -30 3 -71 7 -90 9 -19
3 -62 7 -95 11 -72 7 -123 12 -190 20 -27 3 -72 8 -100 10 -27 3 -68 7 -90 10
-49 5 -156 16 -210 20 -22 2 -40 4 -40 5 0 3 -35 8 -110 14 -44 4 -93 8 -110
11 -16 2 -57 7 -90 10 -33 3 -76 7 -95 10 -67 7 -155 17 -205 22 -27 2 -63 6
-80 8 -128 15 -166 18 -207 19 -27 1 -48 3 -48 6 0 3 -21 6 -48 8 -26 2 -63 5
-82 8 -77 9 -137 15 -180 19 -25 3 -65 7 -90 9 -25 3 -67 8 -95 11 -27 3 -70
7 -95 10 -25 3 -65 7 -90 10 -25 2 -45 4 -45 5 0 1 -20 3 -45 5 -41 2 -99 8
-190 20 -19 3 -62 7 -95 10 -33 4 -80 9 -105 11 -49 6 -95 10 -180 18 -30 3
-74 8 -97 11 -24 3 -62 7 -85 10 -62 8 -124 14 -198 20 -36 3 -81 8 -100 10
-109 15 -161 20 -267 29 -29 2 -74 7 -100 11 -27 4 -68 8 -93 11 -60 5 -138
13 -175 18 -16 3 -63 7 -103 11 -41 4 -88 9 -105 11 -18 3 -52 6 -77 8 -25 2
-65 6 -90 10 -25 3 -70 8 -100 11 -30 3 -73 7 -95 10 -22 2 -62 7 -90 10 -74
7 -167 17 -195 20 -14 2 -56 6 -95 10 -38 4 -88 9 -110 12 -22 3 -60 6 -85 8
-25 2 -45 4 -45 5 0 1 -16 3 -35 5 -52 3 -161 15 -194 21 -16 3 -54 7 -85 9
-31 2 -83 7 -116 10 l-61 7 -219 -173z"/>
</g>
</svg>
